<svg width="3717" height="1436" viewBox="0 0 3717 1436" fill="none" xmlns="http://www.w3.org/2000/svg">
<g clip-path="url(#clip0_0_1)">
<path fill-rule="evenodd" clip-rule="evenodd" d="M3622.23 853.466C3623.53 841.022 3622.23 831.895 3617.69 822.77C3613.79 815.303 3608.6 808.666 3602.11 805.347C3595.62 800.369 3592.38 800.369 3583.29 802.029C3575.51 803.688 3563.83 810.325 3556.69 815.303C3554.74 816.132 3553.45 816.962 3551.5 817.792C3548.25 820.28 3551.5 819.451 3547.61 821.94C3540.47 825.258 3526.84 838.533 3521 844.34L3509.32 856.784C3500.24 867.57 3502.83 865.081 3495.05 875.866L3486.61 893.288C3485.31 898.266 3484.66 903.244 3485.31 908.222C3487.26 914.029 3488.56 914.029 3492.45 917.348C3495.05 919.007 3500.89 920.666 3504.13 921.496C3519.05 924.814 3541.12 923.985 3556.04 918.177C3559.29 916.518 3563.18 914.859 3567.07 914.029L3587.84 903.244C3591.08 900.755 3589.13 901.584 3592.38 899.926C3599.52 895.777 3608.6 888.311 3613.79 880.014C3617.69 873.377 3620.93 864.251 3622.23 853.466ZM3631.31 1144.67C3631.31 1152.96 3630.66 1150.47 3629.37 1155.45C3628.72 1161.26 3628.07 1165.41 3626.12 1171.22C3624.17 1175.36 3622.88 1179.51 3620.28 1182.83C3614.44 1190.3 3613.14 1190.3 3606.01 1191.96C3601.46 1191.96 3601.46 1191.13 3596.92 1191.13C3585.24 1191.96 3575.51 1191.96 3563.83 1191.96C3562.53 1191.96 3559.29 1191.13 3556.69 1191.13L3541.77 1191.96C3539.17 1191.96 3541.12 1191.13 3538.52 1191.96C3535.28 1191.96 3537.22 1192.79 3530.73 1191.13C3528.14 1189.47 3529.44 1190.3 3527.49 1188.64C3509.97 1175.36 3509.97 1140.52 3511.27 1116.46L3542.41 1115.63C3550.85 1115.63 3569.02 1113.14 3577.45 1110.65L3588.49 1104.84C3591.08 1104.02 3591.08 1103.19 3593.68 1102.36C3600.81 1099.04 3607.3 1093.23 3613.14 1088.25C3615.74 1086.59 3615.74 1086.59 3618.33 1084.93C3619.63 1083.27 3620.93 1081.62 3622.23 1079.96C3627.42 1074.98 3628.07 1070.83 3630.66 1074.98C3631.96 1077.47 3631.31 1139.69 3631.31 1144.67ZM3715.67 675.924C3715.67 677.583 3714.37 681.732 3713.72 685.051C3710.48 703.303 3689.06 717.406 3676.73 717.406C3661.16 717.406 3642.99 719.065 3628.07 714.917C3622.88 713.258 3614.44 705.791 3610.55 700.813C3603.41 692.517 3598.87 674.265 3602.11 663.48C3605.36 654.354 3608.6 646.887 3615.74 641.08L3622.23 636.102C3624.17 634.443 3627.42 632.784 3629.37 631.954C3638.45 629.465 3672.84 627.806 3679.33 630.295C3686.47 632.784 3678.03 626.976 3694.9 636.932C3703.34 641.08 3707.23 647.717 3711.13 655.184C3713.07 659.332 3715.67 670.117 3715.67 675.924ZM3393.17 474.849L3366.35 474.806C3362.47 474.622 3358.16 474.49 3354.91 474.788L3318.36 474.728L3318.37 474.611L3282.23 474.67L3091 474.64C3111.26 487.272 3130.23 501.816 3147.92 518.258L3282.22 518.075L3312.43 518.504L3312.55 517.643L3356.69 517.016C3357.4 517.154 3358.1 517.291 3358.78 517.464C3366.01 518.236 3374.37 516.858 3381.76 516.658L3383.44 516.635C3395.12 516.635 3407.45 516.635 3419.13 518.294C3420.42 519.124 3427.56 520.783 3428.86 522.442L3442.49 529.079C3444.43 529.909 3445.08 530.739 3447.03 531.568C3450.27 534.887 3453.52 536.546 3456.11 539.864C3458.71 542.353 3461.3 543.183 3468.44 552.309C3479.47 565.583 3482.72 572.22 3490.5 587.983C3491.15 589.643 3491.8 591.302 3492.45 592.961L3508.67 628.636C3509.32 630.295 3509.97 631.124 3511.27 632.784L3515.16 643.569C3516.46 645.228 3515.81 643.569 3517.11 645.228C3517.76 646.887 3517.11 646.887 3517.76 648.546L3532.03 679.243C3534.63 683.391 3536.57 690.028 3539.17 694.176C3540.47 696.665 3540.47 695.836 3540.47 700.813C3498.94 701.643 3456.11 700.813 3414.58 700.813C3401.66 700.813 3295.37 700.068 3282.22 701.406C3278.87 701.065 3269.48 700.86 3257.15 700.743C3265.28 731.767 3269.33 763.624 3269.33 796.28V804.397C3271.42 804.507 3273.14 804.636 3274.42 804.787V824.429C3274.42 825.349 3274.42 826.454 3274.42 827.713C3273.23 827.905 3271.59 827.947 3269.33 827.928V989.415C3271.11 989.495 3272.68 989.59 3274 989.699C3274 997.939 3274.01 1005.98 3274.02 1013.66C3272.67 1013.69 3271.1 1013.71 3269.33 1013.72V1091.4C3270.39 1091.45 3271.44 1091.5 3272.49 1091.57C3275.17 1092 3278.89 1092.21 3282.22 1091.28C3285.55 1092.21 3289.26 1092 3291.94 1091.57C3304.92 1090.74 3318.55 1091.57 3331.53 1091.57C3373.7 1091.57 3415.88 1091.57 3458.06 1091.57C3461.95 1091.57 3471.04 1094.89 3467.79 1087.42C3466.49 1083.27 3461.3 1078.3 3458.71 1074.15L3432.1 1031.84C3429.51 1027.69 3427.56 1025.2 3424.32 1021.88C3422.37 1020.22 3415.88 1016.07 3413.94 1014.42C3405.18 1011.22 3313.88 1014.18 3290.42 1013.66C3290.43 1005.98 3290.44 997.939 3290.44 989.699C3308.59 988.199 3373.2 989.526 3385.38 989.526C3398.36 989.526 3409.39 987.867 3419.78 992.845C3421.72 993.674 3422.37 994.503 3424.32 995.333C3428.21 996.992 3431.46 999.482 3434.7 1001.97L3448.33 1020.22L3473.63 1060.04C3475.58 1062.53 3475.58 1060.87 3476.88 1064.19C3480.12 1070.83 3484.66 1074.98 3487.91 1081.62C3495.05 1093.23 3493.75 1091.57 3505.43 1091.57C3519.05 1091.57 3543.06 1093.23 3554.74 1090.74C3563.18 1089.08 3567.07 1089.08 3576.16 1085.76C3588.49 1080.79 3606.01 1068.34 3615.74 1056.73L3630.01 1035.16C3631.31 1032.67 3631.31 1033.5 3632.61 1030.18C3633.26 1028.52 3634.56 1027.69 3635.21 1026.03L3641.69 1009.44C3643.64 1003.63 3644.94 997.822 3645.59 991.185C3646.24 988.696 3646.89 987.867 3647.53 984.548C3648.18 979.57 3647.53 976.251 3648.18 970.444C3648.83 962.978 3649.48 964.637 3649.48 955.511V844.34C3649.48 838.533 3648.18 835.214 3648.18 829.407C3648.18 819.451 3644.29 800.369 3641.05 791.243L3632.61 769.673C3626.12 756.399 3618.33 745.614 3609.25 735.658C3607.3 732.339 3604.71 730.68 3602.11 728.192C3598.22 724.043 3589.78 719.065 3587.19 714.917L3576.16 690.028C3575.51 689.199 3575.51 688.369 3574.86 687.539L3563.83 661.821C3557.34 649.376 3547.61 627.806 3541.77 613.702C3539.82 610.383 3538.52 607.065 3536.57 604.576L3513.86 553.139L3504.13 537.376H3503.48C3493.75 523.272 3492.45 522.442 3483.37 512.487C3479.47 507.509 3465.85 496.723 3460.66 493.405C3451.57 489.257 3443.78 483.45 3434.05 480.131C3429.51 479.301 3427.56 477.642 3423.02 477.642C3419.13 477.642 3416.53 475.983 3411.99 475.153C3407.68 474.729 3400.48 474.739 3393.17 474.849ZM3290.02 827.713C3292.94 828.185 3298.57 827.747 3309.46 827.747H3433.4C3455.46 827.747 3467.14 827.747 3486.61 816.962L3532.68 782.947C3534.63 781.288 3536.57 779.629 3539.17 777.97C3544.36 772.992 3563.18 763.866 3550.85 750.591C3544.36 743.125 3537.22 753.081 3529.44 758.058C3522.3 763.036 3515.81 769.673 3507.37 775.48L3490.5 787.096C3480.12 797.051 3465.85 803.688 3452.22 804.518C3433.4 805.294 3310.06 802.439 3290.01 804.787V824.429C3290.01 825.349 3290.01 826.454 3290.02 827.713Z" fill="#78B905"/>
<path d="M3079.73 1124.4C3065.45 1132.74 3050.66 1140.2 3035.24 1146.52C2988.86 1165.86 2940.45 1175.47 2890.14 1175.47C2839.84 1175.47 2791.43 1165.86 2745.04 1146.52C2698.53 1127.31 2657.57 1099.88 2622.06 1064.36C2586.54 1028.85 2559.11 987.896 2539.9 941.382C2520.56 894.995 2510.96 846.585 2510.96 796.28C2510.96 745.975 2520.56 697.566 2539.9 651.178C2559.11 604.664 2586.54 563.713 2622.06 528.196C2657.57 492.678 2698.53 465.251 2745.04 446.039C2791.43 426.7 2839.84 417.094 2890.14 417.094C2940.45 417.094 2988.86 426.7 3035.24 446.039C3081.76 465.251 3122.71 492.678 3158.23 528.196C3193.74 563.713 3221.17 604.664 3240.38 651.178C3259.72 697.566 3269.33 745.975 3269.33 796.28V1175.47H3079.73V1124.4ZM2683.18 657.595C2686.26 682.268 2710.94 685.353 2714.02 706.941C2717.11 734.7 2692.43 740.868 2667.76 740.868C2640 740.868 2627.67 756.289 2627.67 784.047C2627.67 811.805 2624.58 833.395 2646.17 845.732C2670.84 854.984 2695.52 839.563 2710.94 864.237C2732.53 910.5 2643.09 916.669 2698.6 972.184C2710.94 981.437 2723.28 1003.03 2747.95 1003.03C2772.62 999.942 2772.62 975.269 2797.3 969.1C2825.05 966.015 2834.31 987.605 2837.39 1009.19C2837.39 1040.04 2840.48 1055.46 2874.4 1055.46C2902.16 1055.46 2926.83 1058.54 2939.17 1040.04C2951.51 1015.36 2933 990.69 2957.68 975.269C3000.85 947.511 3010.11 1040.04 3062.54 984.521C3074.88 975.269 3099.55 959.848 3096.47 938.258C3096.47 910.5 3068.71 907.416 3065.62 885.826C3059.45 858.068 3084.13 848.816 3108.8 848.816C3139.64 848.816 3148.9 836.479 3148.9 805.637C3148.9 777.878 3151.98 753.205 3130.39 743.952C3102.63 734.7 3081.04 750.121 3068.71 722.363C3047.12 676.099 3139.64 679.184 3074.88 614.416C3065.62 605.163 3050.2 583.573 3025.53 589.742C3003.94 595.91 3000.85 620.584 2973.1 620.584C2914.5 617.499 2982.35 534.226 2895.99 534.226C2868.23 534.226 2843.56 534.226 2837.39 555.815C2831.22 583.573 2840.48 608.247 2815.8 617.499C2791.13 629.836 2775.71 602.079 2763.37 595.91C2741.78 577.404 2720.19 595.91 2710.94 608.247C2698.6 617.499 2677.01 632.92 2683.18 657.595Z" fill="#421E75"/>
<path d="M2329.45 796.28V1175.47H2139.86V796.28C2139.86 745.975 2149.47 697.566 2168.8 651.179C2188.02 604.665 2215.44 563.713 2250.96 528.196C2286.48 492.679 2327.43 465.251 2373.94 446.039C2420.33 426.701 2468.74 417.095 2519.04 417.095V606.687C2466.72 606.687 2421.97 625.141 2384.94 662.175C2347.91 699.209 2329.45 743.953 2329.45 796.28Z" fill="#421E75"/>
<path d="M1811.74 660.026C1776.73 624.509 1735.27 606.687 1687.36 606.687C1635.04 606.687 1590.29 625.141 1553.26 662.175C1544.18 671.259 1536.21 680.807 1529.36 690.817C1521.55 692.672 1513.83 695.178 1506.23 698.345C1483.02 708.027 1462.42 723.312 1445.54 741.872C1431.35 757.476 1418.91 776.383 1411.32 796.124C1405.73 810.651 1401.08 830.424 1407.89 845.273C1410.63 851.232 1416.6 854.623 1423.12 853.914L1441.77 851.886C1442.17 851.843 1442.51 851.793 1442.91 851.719C1453.24 849.783 1464.76 844.284 1474.21 839.696C1482.86 835.502 1491.4 831.104 1500 826.825C1504.22 854.971 1514.48 880.635 1530.79 903.794C1519.48 908.511 1508.22 913.32 1497.08 918.431L1459.34 935.744C1455.29 937.599 1452.53 940.766 1451.24 945.025C1449.96 949.285 1450.51 953.45 1452.85 957.233C1475.95 994.535 1532.37 1002.69 1572.31 998.522C1594.13 996.245 1616.57 990.125 1635.75 979.23C1652.04 983.659 1669.25 985.873 1687.36 985.873C1739.69 985.873 1784.44 967.293 1821.47 930.259C1832.72 919.01 1842.45 906.876 1850.29 893.984L2012.45 991.055C1996.65 1017.72 1977.69 1042.12 1955.45 1064.36C1919.93 1099.88 1878.98 1127.31 1832.47 1146.52C1786.08 1165.86 1737.67 1175.47 1687.36 1175.47C1637.06 1175.47 1588.65 1165.86 1542.26 1146.52C1495.75 1127.31 1454.8 1099.88 1419.28 1064.36C1383.76 1028.85 1356.34 987.895 1337.12 941.382C1317.78 894.995 1308.18 846.585 1308.18 796.28C1308.18 745.975 1317.78 697.566 1337.12 651.179C1356.34 604.665 1383.76 563.713 1419.28 528.196C1454.8 492.679 1495.75 465.251 1542.26 446.039C1588.65 426.701 1637.06 417.095 1687.36 417.095C1737.67 417.095 1786.08 426.701 1832.47 446.039C1878.98 465.251 1919.93 492.679 1955.45 528.196C1990.97 563.713 2018.39 604.665 2037.73 651.179C2054.92 693.142 2064.53 736.495 2066.55 781.492L1698.18 893.768C1683.08 924.443 1656.92 952.961 1629.62 965.483C1578.17 995.61 1490.76 990.017 1465.58 949.352L1503.32 932.038C1573.42 899.884 1605.33 898.302 1593.41 858.082C1583.52 836.512 1568.68 804.158 1555.86 790.454C1518.56 794.51 1464.19 832.502 1440.15 837.003L1421.5 839.031C1406.66 806.677 1474.49 684.19 1587.97 703.931C1617.31 707.966 1629.52 712.198 1638.87 713.393L1811.74 660.026Z" fill="#421E75"/>
<path d="M888.295 511.891V227.502H1077.89V511.891H1267.48V701.484H1077.89V796.28C1077.89 848.608 1096.34 893.352 1133.37 930.385C1170.41 967.419 1215.15 985.873 1267.48 985.873V1175.47C1217.17 1175.47 1168.77 1165.86 1122.38 1146.52C1075.87 1127.31 1034.91 1099.88 999.396 1064.36C963.879 1028.85 936.451 987.895 917.239 941.382C897.9 894.995 888.295 846.585 888.295 796.28V701.484H793.498V511.891H888.295Z" fill="#421E75"/>
<path d="M504.558 660.026C469.547 624.509 428.089 606.687 380.185 606.687C327.858 606.687 283.114 625.141 246.08 662.175C209.047 699.209 190.593 743.953 190.593 796.28C190.593 848.608 209.047 893.352 246.08 930.385C283.114 967.419 327.858 985.873 380.185 985.873C432.513 985.873 477.257 967.293 514.291 930.259C525.54 919.01 535.273 906.876 543.109 893.984L705.274 991.055C689.474 1017.72 670.515 1042.12 648.27 1064.36C612.753 1099.88 571.801 1127.31 525.287 1146.52C478.9 1165.86 430.491 1175.47 380.185 1175.47C329.88 1175.47 281.471 1165.86 235.084 1146.52C188.57 1127.31 147.618 1099.88 112.101 1064.36C76.5844 1028.85 49.1567 987.895 29.9446 941.382C10.606 894.995 1 846.585 1 796.28C1 745.975 10.606 697.566 29.9446 651.179C49.1567 604.665 76.5844 563.713 112.101 528.196C147.618 492.679 188.57 465.251 235.084 446.039C281.471 426.701 329.88 417.095 380.185 417.095C430.491 417.095 478.9 426.701 525.287 446.039C571.801 465.251 612.753 492.679 648.27 528.196C683.787 563.713 711.214 604.665 730.553 651.179C747.743 693.142 757.349 736.495 759.371 781.492L334.304 911.047L283.872 728.153L504.558 660.026Z" fill="#421E75"/>
<path d="M1179.32 204.093L1229.77 171.749L1251.56 203.478C1255.57 209.241 1260.29 213.351 1265.72 215.807C1271.14 218.263 1276.95 217.824 1283.15 214.491L1323.39 193.982L1343.51 256.122L1357.15 247.38C1368.51 240.096 1379.65 234.96 1390.56 231.973C1401.47 228.986 1411.69 227.802 1421.23 228.423C1430.77 229.043 1439.56 231.259 1447.62 235.073C1455.68 238.887 1462.65 243.879 1468.53 250.05L1482.21 263.887C1487.65 269.376 1492.62 273.247 1497.11 275.499C1501.6 277.751 1506 278.616 1510.31 278.094C1514.63 277.573 1519.05 276.098 1523.59 273.671C1528.13 271.244 1533.35 268.136 1539.26 264.348C1545.62 260.268 1550.91 256.638 1555.12 253.456C1559.34 250.274 1563 247.363 1566.12 244.723L1592.28 283.27C1586.59 286.912 1579.84 291.64 1572.03 297.453C1564.21 303.267 1554.17 310.107 1541.89 317.975C1523.94 329.485 1507.59 335.238 1492.83 335.236C1478.08 335.234 1463.09 327.608 1447.86 312.358L1429.32 293.941C1422.2 286.325 1413.86 281.571 1404.31 279.677C1394.75 277.783 1384.98 280.042 1374.98 286.453L1356.91 298.035L1393.66 410.122L1342.52 442.903L1282.99 260.766L1274.96 263.992C1262.74 268.94 1250.44 270.012 1238.06 267.206C1225.68 264.401 1215.62 257.462 1207.88 246.391L1179.32 204.093ZM1732.89 67.7018L1752.27 69.1756L1758.27 1.00006L1816.82 5.45221L1810.82 73.6277L1831.41 75.1935C1844.33 76.1759 1856.66 77.7906 1868.41 80.0372C1880.15 82.2835 1890.72 85.6596 1900.12 90.165L1889.48 139.306C1884.12 135.108 1876.54 131.486 1866.76 128.441C1856.97 125.395 1843.87 123.248 1827.45 122L1806.45 120.403L1791.26 293.466L1732.72 289.014L1747.91 115.951L1728.93 114.508C1712.78 113.28 1699.71 113.369 1689.72 114.775C1679.73 116.182 1671.77 118.554 1665.83 121.893L1663.52 72.1727C1673.49 69.1411 1684.32 67.3923 1696 66.9266C1707.67 66.4608 1719.97 66.7193 1732.89 67.7018ZM2169.22 322.626C2173.62 325.755 2178.22 329.527 2183.04 333.942C2187.85 338.356 2192.5 342.991 2197 347.846L2170.25 385.466C2165.68 380.235 2160.66 375.421 2155.18 371.023C2149.69 366.625 2144.42 362.628 2139.36 359.029C2134.08 355.275 2128.4 353.474 2122.33 353.628C2116.26 353.782 2109.91 355.482 2103.3 358.729C2096.68 361.975 2090.12 366.665 2083.61 372.798C2077.09 378.931 2070.94 386.068 2065.15 394.208C2063.02 397.664 2059.89 399.742 2055.75 400.441C2051.61 401.14 2048 400.395 2044.92 398.205L1978.92 351.271C1971 345.639 1964.74 338.952 1960.14 331.211C1955.54 323.469 1952.65 315.198 1951.45 306.398C1950.25 297.598 1950.73 288.661 1952.88 279.587C1955.02 270.513 1958.99 261.906 1964.78 253.766C1971.35 244.526 1979.25 237.143 1988.48 231.616C1997.71 226.089 2007.51 221.627 2017.87 218.232C2028.24 214.837 2038.88 211.974 2049.82 209.645C2060.75 207.315 2071.24 204.673 2081.29 201.717C2091.34 198.762 2100.67 194.961 2109.28 190.314C2117.88 185.667 2125 179.383 2130.63 171.463L2162.08 127.243L2210.92 161.974L2179.47 206.194C2171.65 217.194 2162.85 225.843 2153.07 232.14C2143.29 238.437 2133.1 243.448 2122.51 247.173C2111.91 250.898 2101.22 253.816 2090.44 255.926C2079.67 258.035 2069.41 260.347 2059.67 262.863C2049.93 265.378 2041.04 268.575 2032.98 272.451C2024.92 276.328 2018.23 282.007 2012.91 289.487C2007.44 297.187 2005.82 303.655 2008.06 308.891C2010.3 314.127 2014.39 318.857 2020.33 323.081L2038.48 335.988C2050.03 323.003 2062.02 314.058 2074.46 309.152C2086.89 304.245 2098.94 301.968 2110.62 302.32C2122.29 302.672 2133.22 304.893 2143.39 308.983C2153.57 313.072 2162.18 317.62 2169.22 322.626Z" fill="#421E75"/>
<path fill-rule="evenodd" clip-rule="evenodd" d="M2871.32 688.437C2723.28 716.195 2772.62 929.005 2908.33 901.247C2960.76 891.995 3007.02 842.647 2997.77 774.795C2988.52 722.363 2933 676.1 2871.32 688.437Z" fill="#421E75"/>
<path d="M1056.69 1351.42C1080.22 1326.68 1093.73 1311.94 1097.23 1307.17C1100.78 1302.37 1102.55 1296.72 1102.55 1290.23C1102.55 1288.83 1102.11 1287.71 1101.22 1286.87C1100.33 1286.03 1098.54 1285.35 1095.83 1284.84C1094.85 1284.65 1094.36 1284.23 1094.36 1283.58C1094.36 1282.97 1094.69 1282.6 1095.34 1282.46C1096.04 1282.32 1097.77 1282.25 1100.52 1282.25L1121.6 1282.39C1122.48 1282.39 1123.65 1282.34 1125.1 1282.25C1127.66 1282.16 1129.48 1282.11 1130.56 1282.11C1131.82 1282.11 1132.45 1282.58 1132.45 1283.51C1132.45 1284.35 1131.89 1284.79 1130.77 1284.84C1127.45 1284.98 1124.75 1285.84 1122.65 1287.43C1120.59 1289.02 1118.42 1292.26 1116.13 1297.16C1113.85 1302.06 1111 1310.3 1107.59 1321.88C1104.23 1333.41 1101.66 1343.86 1099.89 1353.24C1120.38 1334.29 1134.52 1320.06 1142.32 1310.54C1150.16 1300.97 1154.08 1294.5 1154.08 1291.14C1154.08 1289.41 1153.43 1287.9 1152.12 1286.59C1150.86 1285.24 1149.09 1284.56 1146.8 1284.56C1145.03 1284.56 1143.88 1284.47 1143.37 1284.28C1142.9 1284.09 1142.67 1283.65 1142.67 1282.95C1142.67 1282.02 1143.7 1281.55 1145.75 1281.55L1155.34 1281.69C1162.53 1281.69 1167.03 1281.64 1168.85 1281.55C1172.4 1281.32 1174.69 1281.2 1175.72 1281.2C1177.63 1281.2 1178.59 1281.81 1178.59 1283.02C1178.59 1283.77 1177.51 1284.3 1175.37 1284.63C1172.56 1285.1 1169.86 1285.98 1167.24 1287.29C1164.63 1288.55 1162.46 1290.02 1160.73 1291.7C1159.05 1293.38 1156.37 1296.72 1152.68 1301.71C1147.55 1308.67 1142.53 1314.92 1137.63 1320.48C1132.73 1325.98 1124.61 1334.06 1113.26 1344.7C1102.48 1354.83 1093.8 1363.7 1087.22 1371.31C1085.49 1373.31 1084.37 1374.32 1083.86 1374.32C1083.02 1374.32 1082.6 1373.64 1082.6 1372.29C1082.6 1370.61 1084.35 1362.91 1087.85 1349.18C1091.4 1335.46 1094.78 1323.02 1098 1311.87C1094.17 1315.32 1084.96 1325.12 1070.35 1341.27C1065.54 1346.59 1059.31 1353.24 1051.65 1361.22C1044.04 1369.16 1039.98 1373.29 1039.47 1373.62C1038.96 1373.99 1038.54 1374.18 1038.21 1374.18C1037.42 1374.18 1037.02 1373.69 1037.02 1372.71C1037.02 1371.4 1038.09 1367.48 1040.24 1360.94C1042.67 1353.57 1046.14 1341.62 1050.67 1325.1C1055.25 1308.57 1057.53 1298.24 1057.53 1294.08C1057.53 1291.56 1056.65 1289.51 1054.87 1287.92C1053.15 1286.33 1051.35 1285.47 1049.48 1285.33C1048.03 1285.28 1047.31 1284.89 1047.31 1284.14C1047.31 1283.11 1048.15 1282.6 1049.83 1282.6C1052.87 1282.6 1056.02 1282.53 1059.28 1282.39C1061.71 1282.25 1065.07 1282.18 1069.37 1282.18C1073.66 1282.18 1076.93 1282.11 1079.17 1281.97C1081.17 1281.83 1082.71 1281.76 1083.79 1281.76C1085.47 1281.76 1086.31 1282.3 1086.31 1283.37C1086.31 1284.12 1085.87 1284.56 1084.98 1284.7C1081.85 1285.17 1079.7 1285.82 1078.54 1286.66C1077.37 1287.5 1076.04 1289.37 1074.55 1292.26C1073.05 1295.11 1070.81 1301.06 1067.83 1310.12C1064.84 1319.12 1062.27 1327.48 1060.12 1335.18C1058.02 1342.83 1056.88 1348.25 1056.69 1351.42ZM1162.69 1347.29C1161.2 1353.73 1160.45 1358.61 1160.45 1361.92C1160.45 1363.93 1161.01 1365.75 1162.13 1367.39C1163.3 1368.97 1164.86 1369.77 1166.82 1369.77C1169.62 1369.77 1172.59 1368.62 1175.72 1366.34C1178.84 1364 1181.48 1361.18 1183.63 1357.86C1184.7 1356.23 1185.68 1355.41 1186.57 1355.41C1187.45 1355.41 1187.9 1355.83 1187.9 1356.67C1187.9 1359.01 1185.31 1362.39 1180.13 1366.83C1174.99 1371.21 1169.62 1373.41 1164.02 1373.41C1159.73 1373.41 1156.35 1371.84 1153.87 1368.72C1151.44 1365.54 1150.23 1361.9 1150.23 1357.79C1150.23 1348.88 1154.27 1339.01 1162.34 1328.18C1170.46 1317.35 1178.38 1311.94 1186.08 1311.94C1188.78 1311.94 1191.03 1312.89 1192.8 1314.81C1194.62 1316.72 1195.53 1318.82 1195.53 1321.11C1195.53 1325.68 1192.99 1330.35 1187.9 1335.11C1182.86 1339.87 1174.46 1343.93 1162.69 1347.29ZM1163.74 1344.14C1170.79 1341.06 1176.67 1337.12 1181.39 1332.31C1186.15 1327.45 1188.53 1323 1188.53 1318.94C1188.53 1318.05 1188.18 1317.19 1187.48 1316.35C1186.82 1315.46 1185.91 1315.02 1184.75 1315.02C1181.71 1315.02 1178.24 1317.07 1174.32 1321.18C1170.39 1325.24 1166.87 1332.89 1163.74 1344.14ZM1245.03 1362.41C1241.67 1364.14 1238.91 1366.1 1236.77 1368.3C1234.39 1370.63 1232.96 1371.8 1232.5 1371.8C1231.84 1371.8 1231.52 1371.54 1231.52 1371.03L1231.73 1370.4C1233.08 1368.2 1234.67 1364.45 1236.49 1359.12C1241.81 1343.53 1245.29 1335.74 1246.92 1335.74C1247.71 1335.74 1248.11 1336.11 1248.11 1336.86C1248.11 1337.61 1247.9 1338.59 1247.48 1339.8C1246.78 1341.85 1246.43 1344.02 1246.43 1346.31C1246.43 1353.03 1248.88 1358.73 1253.78 1363.4C1258.68 1368.06 1264.38 1370.4 1270.86 1370.4C1275.86 1370.4 1279.85 1368.93 1282.84 1365.99C1285.82 1363.05 1287.32 1359.61 1287.32 1355.69C1287.32 1351.49 1286.08 1347.53 1283.61 1343.79C1281.18 1340.01 1275.62 1333.66 1266.94 1324.75C1262.04 1319.66 1258.91 1315.62 1257.56 1312.64C1256.21 1309.6 1255.53 1306.47 1255.53 1303.25C1255.53 1295.97 1258.12 1290.09 1263.3 1285.61C1268.48 1281.13 1274.9 1278.89 1282.56 1278.89C1290.68 1278.89 1297.26 1282.09 1302.3 1288.48C1303.42 1289.93 1304.17 1290.65 1304.54 1290.65C1305.57 1290.65 1306.8 1289.16 1308.25 1286.17C1308.9 1284.82 1309.56 1284.14 1310.21 1284.14C1310.96 1284.14 1311.33 1284.56 1311.33 1285.4C1311.33 1286.01 1311.21 1286.71 1310.98 1287.5C1310.19 1290.07 1309.04 1294.74 1307.55 1301.5C1305.96 1307.99 1304.98 1311.8 1304.61 1312.92C1304.24 1314.04 1303.68 1314.6 1302.93 1314.6C1302.14 1314.6 1301.74 1314.06 1301.74 1312.99C1301.74 1312.61 1301.79 1312.19 1301.88 1311.73C1302.11 1310.05 1302.23 1308.41 1302.23 1306.82C1302.23 1299.82 1300.46 1293.92 1296.91 1289.11C1293.41 1284.26 1288.58 1281.83 1282.42 1281.83C1278.26 1281.83 1274.67 1283.14 1271.63 1285.75C1268.6 1288.32 1267.08 1291.65 1267.08 1295.76C1267.08 1298.24 1267.53 1300.62 1268.41 1302.9C1269.35 1305.14 1270.44 1307.1 1271.7 1308.78C1273.01 1310.47 1276.07 1313.8 1280.88 1318.8C1287.92 1326.12 1292.68 1331.75 1295.16 1335.67C1297.68 1339.59 1298.94 1343.63 1298.94 1347.78C1298.94 1354.5 1296.44 1360.43 1291.45 1365.57C1286.5 1370.7 1279.87 1373.27 1271.56 1373.27C1261.01 1373.27 1252.17 1369.65 1245.03 1362.41ZM1333.18 1316.42L1339.34 1294.92C1342.65 1294.97 1345.71 1295.2 1348.51 1295.62L1343.26 1313.62C1345.54 1313.15 1347.64 1312.92 1349.56 1312.92C1355.91 1312.92 1360.69 1314.92 1363.91 1318.94C1367.13 1322.95 1368.74 1327.6 1368.74 1332.87C1368.74 1343.28 1364.82 1352.08 1356.98 1359.26C1349.14 1366.45 1338.54 1371.1 1325.19 1373.2C1319.92 1388.46 1317.28 1398.19 1317.28 1402.39C1317.28 1405.43 1320.27 1407.25 1326.24 1407.85C1327.36 1407.99 1327.92 1408.39 1327.92 1409.04C1327.92 1409.93 1327.32 1410.37 1326.1 1410.37L1310.77 1409.95C1308.3 1409.95 1305.73 1410.09 1303.07 1410.37C1299.71 1410.65 1297.14 1410.79 1295.37 1410.79C1294.06 1410.79 1293.41 1410.37 1293.41 1409.53C1293.41 1408.69 1294.41 1408.2 1296.42 1408.06C1299.59 1407.88 1302.07 1407.08 1303.84 1405.68C1305.61 1404.33 1307.27 1401.46 1308.81 1397.07C1310.35 1392.68 1313.64 1382 1318.68 1365.01L1331.84 1320.76C1329.37 1322.02 1326.41 1324.16 1322.95 1327.2C1319.5 1330.23 1317.03 1332.71 1315.53 1334.62C1313.71 1337 1312.47 1338.19 1311.82 1338.19C1311.17 1338.19 1310.84 1337.82 1310.84 1337.07C1310.84 1335.53 1313.13 1332.52 1317.7 1328.04C1322.28 1323.56 1327.43 1319.68 1333.18 1316.42ZM1326.8 1368.86C1328.02 1369.04 1328.86 1369.14 1329.32 1369.14C1334.88 1369.14 1341.09 1366.03 1347.95 1359.82C1354.81 1353.57 1358.24 1345.43 1358.24 1335.39C1358.24 1328.67 1357 1323.86 1354.53 1320.97C1352.06 1318.03 1349.04 1316.56 1345.5 1316.56C1344.61 1316.56 1343.56 1316.72 1342.35 1317.05L1326.8 1368.86ZM1433.99 1313.34C1432.69 1316.23 1430.05 1323.98 1426.08 1336.58L1419.92 1356.11C1418.61 1359.66 1417.96 1362.69 1417.96 1365.22C1417.96 1366.8 1418.73 1367.6 1420.27 1367.6C1421.35 1367.6 1422.91 1366.85 1424.96 1365.36C1427.06 1363.82 1429.09 1361.88 1431.05 1359.54C1432.36 1358 1433.27 1357.23 1433.78 1357.23C1434.58 1357.23 1434.97 1357.63 1434.97 1358.42C1434.97 1359.68 1432.43 1362.48 1427.34 1366.83C1422.26 1371.12 1417.73 1373.27 1413.76 1373.27C1411.05 1373.27 1409.7 1371.42 1409.7 1367.74C1409.7 1365.17 1409.86 1361.9 1410.19 1357.93C1402.95 1367.74 1395.39 1372.64 1387.51 1372.64C1384.1 1372.64 1381.58 1371.4 1379.94 1368.93C1378.31 1366.41 1377.49 1363.58 1377.49 1360.45C1377.49 1351.45 1381.97 1341.11 1390.94 1329.44C1399.94 1317.72 1408.44 1311.87 1416.42 1311.87C1418.52 1311.87 1420.18 1312.59 1421.39 1314.04C1422.65 1315.48 1423.45 1317.68 1423.77 1320.62C1424.61 1318.47 1425.94 1315.67 1427.76 1312.22C1429.26 1312.45 1430.68 1312.68 1432.03 1312.92C1433.01 1313.15 1433.67 1313.29 1433.99 1313.34ZM1412.5 1315.72C1409.79 1315.72 1406.48 1317.68 1402.56 1321.6C1398.64 1325.47 1395.16 1331.19 1392.13 1338.75C1389.09 1346.31 1387.58 1352.61 1387.58 1357.65C1387.58 1360.64 1388.11 1362.91 1389.19 1364.45C1390.26 1365.94 1391.85 1366.69 1393.95 1366.69C1399.36 1366.69 1404.82 1361.74 1410.33 1351.84C1415.88 1341.95 1418.66 1332.99 1418.66 1324.96C1418.66 1322.34 1418.08 1320.15 1416.91 1318.38C1415.79 1316.6 1414.32 1315.72 1412.5 1315.72ZM1467.6 1331.89C1471.57 1325.31 1475.3 1320.38 1478.8 1317.12C1482.3 1313.8 1485.59 1312.15 1488.67 1312.15C1490.73 1312.15 1492.43 1312.75 1493.79 1313.97C1495.19 1315.18 1495.89 1316.79 1495.89 1318.8C1495.89 1320.48 1495.33 1322.04 1494.21 1323.49C1493.13 1324.93 1491.73 1325.66 1490 1325.66C1487.02 1325.66 1485.15 1324.33 1484.4 1321.67C1483.94 1319.89 1483.31 1319.01 1482.51 1319.01C1481.07 1319.01 1478.64 1321.29 1475.23 1325.87C1471.82 1330.44 1468.39 1336.21 1464.94 1343.16L1455.07 1373.41H1451.29L1447.44 1373.48L1446.46 1373.41C1446.69 1372.38 1448.07 1368.04 1450.59 1360.38C1457.36 1334.95 1460.74 1321.01 1460.74 1318.59C1460.74 1317.7 1460.39 1317.26 1459.69 1317.26C1458.8 1317.26 1457.12 1318.45 1454.65 1320.83C1452.17 1323.21 1450.03 1325.73 1448.21 1328.39C1446.76 1330.49 1445.64 1331.54 1444.85 1331.54C1444.05 1331.54 1443.66 1331.17 1443.66 1330.42C1443.66 1329.3 1446.08 1325.98 1450.94 1320.48C1455.79 1314.92 1460.04 1312.15 1463.68 1312.15C1465.59 1312.15 1467.02 1312.73 1467.95 1313.9C1468.93 1315.02 1469.42 1316.21 1469.42 1317.47C1469.42 1318.91 1469.14 1321.22 1468.58 1324.4C1468.39 1325.47 1468.07 1327.97 1467.6 1331.89ZM1505.76 1347.29C1504.26 1353.73 1503.52 1358.61 1503.52 1361.92C1503.52 1363.93 1504.08 1365.75 1505.2 1367.39C1506.36 1368.97 1507.93 1369.77 1509.89 1369.77C1512.69 1369.77 1515.65 1368.62 1518.78 1366.34C1521.91 1364 1524.54 1361.18 1526.69 1357.86C1527.77 1356.23 1528.75 1355.41 1529.63 1355.41C1530.52 1355.41 1530.96 1355.83 1530.96 1356.67C1530.96 1359.01 1528.37 1362.39 1523.19 1366.83C1518.06 1371.21 1512.69 1373.41 1507.09 1373.41C1502.79 1373.41 1499.41 1371.84 1496.94 1368.72C1494.51 1365.54 1493.3 1361.9 1493.3 1357.79C1493.3 1348.88 1497.33 1339.01 1505.41 1328.18C1513.53 1317.35 1521.44 1311.94 1529.14 1311.94C1531.85 1311.94 1534.09 1312.89 1535.86 1314.81C1537.68 1316.72 1538.59 1318.82 1538.59 1321.11C1538.59 1325.68 1536.05 1330.35 1530.96 1335.11C1525.92 1339.87 1517.52 1343.93 1505.76 1347.29ZM1506.81 1344.14C1513.86 1341.06 1519.74 1337.12 1524.45 1332.31C1529.21 1327.45 1531.59 1323 1531.59 1318.94C1531.59 1318.05 1531.24 1317.19 1530.54 1316.35C1529.89 1315.46 1528.98 1315.02 1527.81 1315.02C1524.78 1315.02 1521.3 1317.07 1517.38 1321.18C1513.46 1325.24 1509.94 1332.89 1506.81 1344.14ZM1630.17 1322.72L1638.01 1308.22C1640.95 1302.86 1644.43 1297.84 1648.44 1293.17C1652.46 1288.5 1656.64 1284.96 1660.98 1282.53C1665.36 1280.1 1669.59 1278.89 1673.65 1278.89C1676.5 1278.89 1678.81 1279.89 1680.58 1281.9C1682.4 1283.91 1683.31 1286.03 1683.31 1288.27C1683.31 1290.28 1682.68 1292.17 1681.42 1293.94C1680.21 1295.67 1678.41 1296.53 1676.03 1296.53C1674.4 1296.53 1673.11 1296.11 1672.18 1295.27C1671.29 1294.39 1669.92 1292.15 1668.05 1288.55C1667.02 1286.54 1665.69 1285.54 1664.06 1285.54C1660.7 1285.54 1656.01 1289.09 1649.98 1296.18C1643.96 1303.28 1637.71 1314.2 1631.22 1328.95C1624.73 1343.7 1621.49 1354.48 1621.49 1361.29C1621.49 1364.14 1622.4 1366.31 1624.22 1367.81C1626.04 1369.3 1628.42 1370.07 1631.36 1370.12C1634.44 1370.12 1636.22 1370.21 1636.68 1370.4C1637.15 1370.58 1637.38 1370.93 1637.38 1371.45C1637.38 1372.29 1636.47 1372.71 1634.65 1372.71L1607.14 1372.01C1602.94 1372.01 1599.02 1372.15 1595.37 1372.43C1593.13 1372.61 1591.29 1372.71 1589.84 1372.71C1588.35 1372.71 1587.6 1372.22 1587.6 1371.24C1587.6 1370.72 1587.84 1370.4 1588.3 1370.26C1588.77 1370.12 1590.19 1370 1592.57 1369.91C1597.57 1369.77 1601.56 1368.02 1604.55 1364.66C1607.53 1361.25 1611.06 1352.12 1615.12 1337.28C1619.18 1322.39 1621.21 1311.14 1621.21 1303.53C1621.21 1297.33 1620.16 1292.73 1618.06 1289.74C1616.01 1286.75 1613.53 1285.26 1610.64 1285.26C1607.84 1285.26 1605.04 1286.17 1602.24 1287.99C1599.44 1289.76 1597.29 1291.82 1595.79 1294.15C1594.35 1296.49 1592.95 1299.82 1591.59 1304.16L1590.19 1308.57C1589.96 1309.23 1589.56 1309.55 1589 1309.55C1588.21 1309.55 1587.81 1309.13 1587.81 1308.29C1587.81 1305.49 1589.03 1301.48 1591.45 1296.25C1593.88 1291.02 1597.19 1286.96 1601.4 1284.07C1605.64 1281.18 1609.82 1279.73 1613.93 1279.73C1618.55 1279.73 1622.61 1281.95 1626.11 1286.38C1629.66 1290.77 1631.43 1296.95 1631.43 1304.93C1631.43 1311.14 1631.01 1317.07 1630.17 1322.72ZM1695.49 1312.29C1701.7 1312.29 1706.58 1314.67 1710.13 1319.43C1713.67 1324.19 1715.45 1329.81 1715.45 1336.3C1715.45 1345.4 1712.25 1353.9 1705.86 1361.78C1699.46 1369.63 1691.83 1373.55 1682.96 1373.55C1676.43 1373.55 1671.71 1371.14 1668.82 1366.34C1665.92 1361.53 1664.48 1356.49 1664.48 1351.21C1664.48 1344.26 1666.27 1337.51 1669.87 1330.98C1673.46 1324.44 1677.64 1319.71 1682.4 1316.77C1687.16 1313.78 1691.53 1312.29 1695.49 1312.29ZM1696.82 1315.16C1694.21 1315.16 1691.32 1316.67 1688.14 1319.71C1685.01 1322.74 1681.91 1328.2 1678.83 1336.09C1675.8 1343.98 1674.28 1351.38 1674.28 1358.28C1674.28 1361.64 1675.05 1364.54 1676.59 1366.97C1678.13 1369.39 1680.21 1370.61 1682.82 1370.61C1685.76 1370.61 1688.94 1368.86 1692.34 1365.36C1695.8 1361.85 1698.97 1356.44 1701.86 1349.11C1704.76 1341.78 1706.21 1334.83 1706.21 1328.25C1706.21 1323.86 1705.41 1320.59 1703.82 1318.45C1702.28 1316.25 1699.95 1315.16 1696.82 1315.16ZM1783.43 1313.13C1782.68 1315.51 1781.12 1319.87 1778.74 1326.22C1770.62 1347.5 1766.56 1360.55 1766.56 1365.36C1766.56 1366.01 1766.7 1366.5 1766.98 1366.83C1767.26 1367.15 1767.68 1367.32 1768.24 1367.32C1769.68 1367.32 1771.64 1366.08 1774.12 1363.61C1776.55 1361.13 1778.48 1358.77 1779.93 1356.53C1781 1354.81 1781.94 1353.94 1782.73 1353.94C1783.48 1353.94 1783.85 1354.32 1783.85 1355.06C1783.85 1356.98 1781.33 1360.5 1776.29 1365.64C1771.29 1370.72 1766.88 1373.27 1763.06 1373.27C1761.42 1373.27 1760.19 1372.71 1759.35 1371.59C1758.55 1370.42 1758.16 1368.69 1758.16 1366.41C1758.16 1361.78 1759.14 1356.21 1761.1 1349.67C1750.87 1365.36 1742.22 1373.2 1735.12 1373.2C1733.35 1373.2 1731.76 1372.45 1730.36 1370.96C1729.01 1369.42 1728.33 1367.62 1728.33 1365.57C1728.33 1363.51 1728.59 1361.43 1729.1 1359.33C1729.61 1357.19 1731.53 1351.14 1734.84 1341.2C1738.15 1331.26 1740.16 1325.45 1740.86 1323.77C1741.7 1321.76 1742.12 1320.03 1742.12 1318.59C1742.12 1318.07 1742.01 1317.7 1741.77 1317.47C1741.54 1317.19 1741.17 1317.05 1740.65 1317.05C1738.64 1317.05 1734.98 1320.2 1729.66 1326.5C1727.61 1328.97 1726.28 1330.21 1725.67 1330.21C1725.02 1330.21 1724.69 1329.88 1724.69 1329.23C1724.69 1327.6 1727.12 1324.37 1731.97 1319.57C1736.87 1314.71 1741.17 1312.29 1744.85 1312.29C1746.58 1312.29 1748.07 1312.99 1749.33 1314.39C1750.64 1315.79 1751.29 1317.4 1751.29 1319.22C1751.29 1321.88 1749.78 1326.94 1746.74 1334.41C1740.58 1349.63 1737.5 1359.64 1737.5 1364.45C1737.5 1365.33 1737.73 1366.15 1738.2 1366.9C1738.71 1367.64 1739.32 1368.02 1740.02 1368.02C1740.96 1368.02 1742.33 1367.41 1744.15 1366.2C1745.97 1364.98 1749.03 1361.5 1753.32 1355.76C1757.62 1349.98 1761.54 1343.35 1765.09 1335.88L1775.8 1313.13C1776.59 1312.85 1777.48 1312.71 1778.46 1312.71C1779.81 1312.71 1781.47 1312.85 1783.43 1313.13ZM1893.21 1285.19C1889.57 1294.62 1885.02 1309.41 1879.56 1329.58C1874.14 1349.74 1871.44 1361.08 1871.44 1363.61C1871.44 1365.19 1872.53 1366.45 1874.73 1367.39C1876.92 1368.27 1881.26 1368.95 1887.75 1369.42C1888.82 1369.51 1889.36 1369.84 1889.36 1370.4C1889.36 1371.7 1888.17 1372.36 1885.79 1372.36L1870.04 1372.01L1844.27 1372.15C1842.31 1372.15 1841.33 1371.73 1841.33 1370.89C1841.33 1369.86 1842.61 1369.35 1845.18 1369.35C1849.8 1369.35 1852.98 1368.62 1854.7 1367.18C1856.48 1365.73 1857.92 1362.72 1859.04 1358.14L1865.56 1334.13L1872.21 1308.57L1877.95 1285.82C1875.1 1285.26 1872.16 1284.98 1869.13 1284.98C1862.59 1284.98 1856.71 1286.68 1851.48 1290.09C1846.3 1293.5 1841.54 1297.84 1837.2 1303.11C1836.22 1304.28 1835.47 1304.86 1834.96 1304.86C1834.21 1304.86 1833.84 1304.51 1833.84 1303.81C1833.84 1303.02 1834.89 1300.1 1836.99 1295.06C1839.14 1290.02 1841.45 1285.45 1843.92 1281.34L1887.33 1282.04L1921.15 1281.2C1921.99 1281.2 1923.43 1281.25 1925.49 1281.34L1926.47 1296.11C1926.79 1299.52 1926.96 1302.48 1926.96 1305C1926.96 1306.12 1926.49 1306.68 1925.56 1306.68C1925.04 1306.68 1924.72 1306.36 1924.58 1305.7C1921.73 1291.65 1913.44 1284.63 1899.72 1284.63C1897.62 1284.63 1895.45 1284.82 1893.21 1285.19ZM1943.13 1334.41C1950.08 1325.63 1955.55 1319.59 1959.51 1316.28C1963.53 1312.92 1967.07 1311.24 1970.16 1311.24C1972.54 1311.24 1974.45 1311.98 1975.9 1313.48C1977.34 1314.97 1978.07 1316.81 1978.07 1319.01C1978.07 1322.88 1975.73 1331.4 1971.07 1344.56C1966.72 1356.74 1964.55 1364.03 1964.55 1366.41C1964.55 1367.9 1965.23 1368.65 1966.58 1368.65C1967.89 1368.65 1969.87 1367.46 1972.54 1365.08C1975.2 1362.69 1977.65 1359.96 1979.89 1356.88C1980.63 1355.9 1981.29 1355.41 1981.85 1355.41C1982.64 1355.41 1983.04 1355.9 1983.04 1356.88C1983.04 1358.38 1980.54 1361.55 1975.55 1366.41C1970.6 1371.26 1965.91 1373.69 1961.47 1373.69C1956.9 1373.69 1954.61 1372.01 1954.61 1368.65C1954.61 1366.27 1955.31 1363.28 1956.71 1359.68C1959 1353.94 1961.57 1346.59 1964.41 1337.63C1967.26 1328.67 1968.68 1322.88 1968.68 1320.27C1968.68 1319.19 1968.5 1318.4 1968.12 1317.89C1967.75 1317.37 1967.17 1317.12 1966.37 1317.12C1964.23 1317.12 1960.8 1319.17 1956.08 1323.28C1951.37 1327.38 1947.47 1332.24 1944.39 1337.84C1941.36 1343.44 1938.28 1351.26 1935.15 1361.29C1933.19 1367.5 1932 1371.07 1931.58 1372.01C1931.2 1372.99 1930.74 1373.48 1930.18 1373.48C1928.78 1373.48 1927.12 1373.22 1925.21 1372.71C1923.29 1372.19 1922.34 1371.77 1922.34 1371.45C1922.34 1370.98 1922.45 1370.44 1922.69 1369.84C1923.15 1368.48 1926.63 1357.86 1933.12 1337.98L1943.06 1306.96L1948.24 1288.69C1948.85 1286.96 1949.15 1285.52 1949.15 1284.35C1949.15 1282.81 1946.61 1281.57 1941.52 1280.64C1939.75 1280.31 1938.86 1279.71 1938.86 1278.82C1938.86 1277.93 1939.79 1277.49 1941.66 1277.49L1953.77 1277.56C1957.79 1277.61 1959.93 1277.7 1960.21 1277.84C1960.49 1277.98 1960.63 1278.19 1960.63 1278.47L1960.35 1279.45C1960.21 1279.78 1960.07 1280.27 1959.93 1280.92C1958.72 1286.52 1953.12 1304.35 1943.13 1334.41ZM2001.31 1347.29C1999.82 1353.73 1999.07 1358.61 1999.07 1361.92C1999.07 1363.93 1999.63 1365.75 2000.75 1367.39C2001.92 1368.97 2003.48 1369.77 2005.44 1369.77C2008.24 1369.77 2011.21 1368.62 2014.33 1366.34C2017.46 1364 2020.1 1361.18 2022.24 1357.86C2023.32 1356.23 2024.3 1355.41 2025.19 1355.41C2026.07 1355.41 2026.52 1355.83 2026.52 1356.67C2026.52 1359.01 2023.93 1362.39 2018.74 1366.83C2013.61 1371.21 2008.24 1373.41 2002.64 1373.41C1998.35 1373.41 1994.96 1371.84 1992.49 1368.72C1990.06 1365.54 1988.85 1361.9 1988.85 1357.79C1988.85 1348.88 1992.89 1339.01 2000.96 1328.18C2009.08 1317.35 2016.99 1311.94 2024.7 1311.94C2027.4 1311.94 2029.64 1312.89 2031.42 1314.81C2033.24 1316.72 2034.15 1318.82 2034.15 1321.11C2034.15 1325.68 2031.6 1330.35 2026.52 1335.11C2021.47 1339.87 2013.07 1343.93 2001.31 1347.29ZM2002.36 1344.14C2009.41 1341.06 2015.29 1337.12 2020 1332.31C2024.77 1327.45 2027.15 1323 2027.15 1318.94C2027.15 1318.05 2026.8 1317.19 2026.1 1316.35C2025.44 1315.46 2024.53 1315.02 2023.37 1315.02C2020.33 1315.02 2016.85 1317.07 2012.93 1321.18C2009.01 1325.24 2005.49 1332.89 2002.36 1344.14ZM2104.3 1323.91C2108.64 1324.33 2115.78 1324.54 2125.72 1324.54C2139.73 1324.54 2149.02 1324.47 2153.59 1324.33C2157.79 1308.97 2159.89 1298.73 2159.89 1293.59C2159.89 1291.16 2159.07 1289.09 2157.44 1287.36C2155.81 1285.59 2153.1 1284.7 2149.32 1284.7C2146.94 1284.7 2145.75 1284.19 2145.75 1283.16C2145.75 1282.27 2146.4 1281.83 2147.71 1281.83C2148.32 1281.83 2149.04 1281.85 2149.88 1281.9C2156.41 1282.32 2165.35 1282.53 2176.69 1282.53L2188.04 1282.32C2189.44 1282.32 2190.14 1282.76 2190.14 1283.65C2190.14 1284.54 2189.48 1285.03 2188.18 1285.12C2184.4 1285.45 2181.64 1285.96 2179.91 1286.66C2178.23 1287.36 2176.72 1288.74 2175.36 1290.79C2174.06 1292.8 2173.08 1294.9 2172.42 1297.09C2171.82 1299.29 2169.67 1308.06 2165.98 1323.42C2162.29 1338.73 2160.1 1348.25 2159.4 1351.98C2158.75 1355.72 2158.42 1358.75 2158.42 1361.08C2158.42 1363.14 2159.24 1365.01 2160.87 1366.69C2162.5 1368.32 2164.42 1369.21 2166.61 1369.35C2169.04 1369.53 2170.25 1370.02 2170.25 1370.82C2170.25 1371.89 2169.39 1372.43 2167.66 1372.43L2154.08 1372.01L2131.89 1372.5C2130.49 1372.5 2129.79 1372.03 2129.79 1371.1C2129.79 1370.35 2130.37 1369.93 2131.54 1369.84C2136.25 1369.42 2139.59 1368.16 2141.55 1366.06C2143.55 1363.96 2145.82 1357.49 2148.34 1346.66L2152.54 1328.25C2146.19 1327.97 2137.81 1327.83 2127.4 1327.83L2103.32 1327.9C2102.71 1331.26 2101.59 1336.18 2099.96 1342.67C2098 1350.37 2097.02 1355.69 2097.02 1358.63C2097.02 1365.5 2100.87 1369.16 2108.57 1369.63C2110.39 1369.72 2111.3 1370.16 2111.3 1370.96C2111.3 1371.75 2110.83 1372.15 2109.9 1372.15L2091.07 1371.94L2069.5 1372.22C2068.06 1372.22 2067.33 1371.73 2067.33 1370.75C2067.33 1370.05 2068.57 1369.46 2071.04 1369C2074.17 1368.39 2076.46 1367.53 2077.91 1366.41C2079.35 1365.29 2080.78 1363.23 2082.18 1360.24C2083.62 1357.21 2085.47 1351.14 2087.71 1342.04C2089.99 1332.94 2092.21 1323.49 2094.36 1313.69C2096.55 1303.84 2097.65 1297.58 2097.65 1294.92C2097.65 1291.14 2096.83 1288.53 2095.2 1287.08C2093.61 1285.59 2090.9 1284.68 2087.08 1284.35C2085.86 1284.26 2085.26 1283.84 2085.26 1283.09C2085.26 1282.16 2085.91 1281.69 2087.22 1281.69L2110.39 1281.97L2124.11 1281.76C2126.21 1281.76 2127.26 1282.3 2127.26 1283.37C2127.26 1284.26 2126.61 1284.7 2125.3 1284.7C2122.6 1284.7 2120.15 1285.17 2117.95 1286.1C2115.76 1287.03 2114.1 1288.36 2112.98 1290.09C2111.91 1291.82 2110.58 1296.09 2108.99 1302.9L2104.3 1323.91ZM2241.25 1313.34C2239.94 1316.23 2237.3 1323.98 2233.33 1336.58L2227.17 1356.11C2225.87 1359.66 2225.21 1362.69 2225.21 1365.22C2225.21 1366.8 2225.98 1367.6 2227.52 1367.6C2228.6 1367.6 2230.16 1366.85 2232.21 1365.36C2234.31 1363.82 2236.35 1361.88 2238.31 1359.54C2239.61 1358 2240.52 1357.23 2241.04 1357.23C2241.83 1357.23 2242.23 1357.63 2242.23 1358.42C2242.23 1359.68 2239.68 1362.48 2234.59 1366.83C2229.51 1371.12 2224.98 1373.27 2221.01 1373.27C2218.31 1373.27 2216.95 1371.42 2216.95 1367.74C2216.95 1365.17 2217.11 1361.9 2217.44 1357.93C2210.21 1367.74 2202.65 1372.64 2194.76 1372.64C2191.35 1372.64 2188.83 1371.4 2187.2 1368.93C2185.56 1366.41 2184.75 1363.58 2184.75 1360.45C2184.75 1351.45 2189.23 1341.11 2198.19 1329.44C2207.2 1317.72 2215.69 1311.87 2223.67 1311.87C2225.77 1311.87 2227.43 1312.59 2228.64 1314.04C2229.9 1315.48 2230.7 1317.68 2231.02 1320.62C2231.86 1318.47 2233.19 1315.67 2235.01 1312.22C2236.51 1312.45 2237.93 1312.68 2239.29 1312.92C2240.27 1313.15 2240.92 1313.29 2241.25 1313.34ZM2219.75 1315.72C2217.04 1315.72 2213.73 1317.68 2209.81 1321.6C2205.89 1325.47 2202.41 1331.19 2199.38 1338.75C2196.34 1346.31 2194.83 1352.61 2194.83 1357.65C2194.83 1360.64 2195.36 1362.91 2196.44 1364.45C2197.51 1365.94 2199.1 1366.69 2201.2 1366.69C2206.61 1366.69 2212.07 1361.74 2217.58 1351.84C2223.14 1341.95 2225.91 1332.99 2225.91 1324.96C2225.91 1322.34 2225.33 1320.15 2224.16 1318.38C2223.04 1316.6 2221.57 1315.72 2219.75 1315.72ZM2283.11 1353.45C2283.11 1358.96 2281.13 1363.72 2277.16 1367.74C2273.2 1371.75 2268.53 1373.76 2263.16 1373.76C2258.54 1373.76 2254.92 1372.52 2252.31 1370.05C2249.74 1367.57 2248.46 1365.26 2248.46 1363.12C2248.46 1361.71 2248.97 1360.36 2250 1359.05C2251.02 1357.75 2252.38 1357.09 2254.06 1357.09C2255.6 1357.09 2256.81 1357.56 2257.7 1358.49C2258.63 1359.43 2259.1 1360.55 2259.1 1361.85C2259.1 1362.55 2258.89 1363.42 2258.47 1364.45C2258.05 1365.52 2257.84 1366.31 2257.84 1366.83C2257.84 1368.04 2258.35 1368.97 2259.38 1369.63C2260.45 1370.23 2262.04 1370.54 2264.14 1370.54C2267.64 1370.54 2270.35 1369.56 2272.26 1367.6C2274.22 1365.59 2275.2 1363.16 2275.2 1360.31C2275.2 1357.51 2273.36 1353.64 2269.67 1348.69C2263.74 1340.71 2260.78 1334.27 2260.78 1329.37C2260.78 1325.03 2262.44 1320.99 2265.75 1317.26C2269.06 1313.52 2273.13 1311.66 2277.93 1311.66C2281.34 1311.66 2284.33 1312.61 2286.89 1314.53C2289.51 1316.44 2290.82 1318.54 2290.82 1320.83C2290.82 1322.32 2290.3 1323.63 2289.28 1324.75C2288.29 1325.82 2287.13 1326.36 2285.77 1326.36C2283.16 1326.36 2281.85 1324.98 2281.85 1322.23L2281.92 1318.45C2281.92 1317.42 2281.32 1316.53 2280.1 1315.79C2278.84 1315.09 2277.54 1314.74 2276.18 1314.74C2274.08 1314.74 2272.12 1315.46 2270.3 1316.91C2268.48 1318.35 2267.57 1320.45 2267.57 1323.21C2267.57 1326.05 2270.21 1330.82 2275.48 1337.49C2280.57 1343.93 2283.11 1349.25 2283.11 1353.45ZM2327.92 1353.45C2327.92 1358.96 2325.94 1363.72 2321.97 1367.74C2318 1371.75 2313.34 1373.76 2307.97 1373.76C2303.35 1373.76 2299.73 1372.52 2297.12 1370.05C2294.55 1367.57 2293.27 1365.26 2293.27 1363.12C2293.27 1361.71 2293.78 1360.36 2294.81 1359.05C2295.83 1357.75 2297.19 1357.09 2298.87 1357.09C2300.41 1357.09 2301.62 1357.56 2302.51 1358.49C2303.44 1359.43 2303.91 1360.55 2303.91 1361.85C2303.91 1362.55 2303.7 1363.42 2303.28 1364.45C2302.86 1365.52 2302.65 1366.31 2302.65 1366.83C2302.65 1368.04 2303.16 1368.97 2304.19 1369.63C2305.26 1370.23 2306.85 1370.54 2308.95 1370.54C2312.45 1370.54 2315.16 1369.56 2317.07 1367.6C2319.03 1365.59 2320.01 1363.16 2320.01 1360.31C2320.01 1357.51 2318.17 1353.64 2314.48 1348.69C2308.55 1340.71 2305.59 1334.27 2305.59 1329.37C2305.59 1325.03 2307.25 1320.99 2310.56 1317.26C2313.87 1313.52 2317.93 1311.66 2322.74 1311.66C2326.15 1311.66 2329.14 1312.61 2331.7 1314.53C2334.32 1316.44 2335.62 1318.54 2335.62 1320.83C2335.62 1322.32 2335.11 1323.63 2334.08 1324.75C2333.1 1325.82 2331.94 1326.36 2330.58 1326.36C2327.97 1326.36 2326.66 1324.98 2326.66 1322.23L2326.73 1318.45C2326.73 1317.42 2326.13 1316.53 2324.91 1315.79C2323.65 1315.09 2322.34 1314.74 2320.99 1314.74C2318.89 1314.74 2316.93 1315.46 2315.11 1316.91C2313.29 1318.35 2312.38 1320.45 2312.38 1323.21C2312.38 1326.05 2315.02 1330.82 2320.29 1337.49C2325.38 1343.93 2327.92 1349.25 2327.92 1353.45ZM2378.26 1276.02C2377.38 1279.24 2373.31 1292.47 2366.08 1315.72L2353.06 1358.91C2351.61 1364.52 2350.89 1367.76 2350.89 1368.65C2350.89 1369.39 2351.19 1369.77 2351.8 1369.77C2353.1 1369.77 2355.69 1368.16 2359.57 1364.94C2363.44 1361.71 2366.22 1358.8 2367.9 1356.18C2369.02 1354.46 2369.86 1353.59 2370.42 1353.59C2371.21 1353.59 2371.61 1353.99 2371.61 1354.78C2371.61 1356.37 2369 1359.87 2363.77 1365.29C2358.59 1370.7 2353.55 1373.41 2348.65 1373.41C2347.2 1373.41 2345.89 1372.89 2344.73 1371.87C2343.56 1370.79 2342.98 1369.23 2342.98 1367.18C2342.98 1363.91 2343.47 1360.45 2344.45 1356.81C2345.43 1353.13 2349.95 1338.4 2358.03 1312.64C2363.35 1295.74 2366.01 1286.1 2366.01 1283.72C2366.01 1281.15 2363.28 1279.78 2357.82 1279.59C2355.76 1279.54 2354.74 1279.08 2354.74 1278.19C2354.74 1277.21 2355.76 1276.72 2357.82 1276.72L2378.26 1276.02ZM2389.18 1347.29C2387.69 1353.73 2386.94 1358.61 2386.94 1361.92C2386.94 1363.93 2387.5 1365.75 2388.62 1367.39C2389.79 1368.97 2391.35 1369.77 2393.31 1369.77C2396.12 1369.77 2399.08 1368.62 2402.21 1366.34C2405.33 1364 2407.97 1361.18 2410.12 1357.86C2411.19 1356.23 2412.17 1355.41 2413.06 1355.41C2413.95 1355.41 2414.39 1355.83 2414.39 1356.67C2414.39 1359.01 2411.8 1362.39 2406.62 1366.83C2401.48 1371.21 2396.12 1373.41 2390.51 1373.41C2386.22 1373.41 2382.84 1371.84 2380.36 1368.72C2377.94 1365.54 2376.72 1361.9 2376.72 1357.79C2376.72 1348.88 2380.76 1339.01 2388.83 1328.18C2396.96 1317.35 2404.87 1311.94 2412.57 1311.94C2415.28 1311.94 2417.52 1312.89 2419.29 1314.81C2421.11 1316.72 2422.02 1318.82 2422.02 1321.11C2422.02 1325.68 2419.48 1330.35 2414.39 1335.11C2409.35 1339.87 2400.95 1343.93 2389.18 1347.29ZM2390.23 1344.14C2397.28 1341.06 2403.16 1337.12 2407.88 1332.31C2412.64 1327.45 2415.02 1323 2415.02 1318.94C2415.02 1318.05 2414.67 1317.19 2413.97 1316.35C2413.32 1315.46 2412.41 1315.02 2411.24 1315.02C2408.2 1315.02 2404.73 1317.07 2400.81 1321.18C2396.89 1325.24 2393.36 1332.89 2390.23 1344.14Z" fill="#421E75"/>
<path d="M913 1241H2527" stroke="#421E75" stroke-width="22" stroke-linecap="round"/>
<path d="M913 1426H2527" stroke="#421E75" stroke-width="22" stroke-linecap="round"/>
</g>
<defs>
<clipPath id="clip0_0_1">
<rect width="3716.67" height="1435.11" fill="white"/>
</clipPath>
</defs>
</svg>
